<svg version="1.1" id="Layer_1" xmlns="http://www.w3.org/2000/svg" xmlns:xlink="http://www.w3.org/1999/xlink" x="0px" y="0px"
	 width="100%" viewBox="0 0 92 104" enable-background="new 0 0 92 104" xml:space="preserve">
<path fill="#0A192F" opacity="1.000000" stroke="none" 
	d="
M43.000000,1.000000 
	C45.042316,1.000000 47.084637,1.000000 49.646805,1.329988 
	C51.173656,2.485995 52.094574,3.456534 53.201023,4.115611 
	C63.911587,10.495543 74.741409,16.682487 85.303810,23.297174 
	C87.176163,24.469732 89.047516,27.339785 89.089706,29.462336 
	C89.354225,42.771893 89.242233,56.095722 88.869522,69.404045 
	C88.811691,71.469017 87.294609,74.352882 85.572662,75.372635 
	C73.978096,82.239075 62.204117,88.812859 50.325912,95.178505 
	C48.625366,96.089851 45.580227,96.193810 43.953598,95.269783 
	C31.946085,88.448700 20.074606,81.378090 8.347457,74.085075 
	C6.711802,73.067886 5.195291,70.424255 5.157241,68.503151 
	C4.886927,54.855343 4.905066,41.197590 5.156655,27.549004 
	C5.188429,25.825228 6.704772,23.444691 8.228410,22.542982 
	C18.526762,16.448294 29.042183,10.721568 39.402840,4.729626 
	C40.840149,3.898378 41.812439,2.263078 43.000000,1.000000 
M38.629555,30.452629 
	C36.376274,30.452629 34.122997,30.452629 31.452581,30.452629 
	C31.452581,37.347111 31.452583,43.469913 31.452583,49.592716 
	C31.452583,55.647015 31.452581,61.701313 31.452581,67.911736 
	C37.155003,67.911736 41.984535,68.180298 46.772377,67.848053 
	C53.748188,67.363983 59.202629,64.166901 61.820892,57.385826 
	C67.427132,42.866158 59.045475,30.593513 43.549709,30.454655 
	C42.220165,30.442741 40.890419,30.452814 38.629555,30.452629 
z"/>
<path fill="#010101" opacity="1.000000" stroke="none" 
	d="
M42.531342,1.000000 
	C41.812439,2.263078 40.840149,3.898378 39.402840,4.729626 
	C29.042183,10.721568 18.526762,16.448294 8.228410,22.542982 
	C6.704772,23.444691 5.188429,25.825228 5.156655,27.549004 
	C4.905066,41.197590 4.886927,54.855343 5.157241,68.503151 
	C5.195291,70.424255 6.711802,73.067886 8.347457,74.085075 
	C20.074606,81.378090 31.946085,88.448700 43.953598,95.269783 
	C45.580227,96.193810 48.625366,96.089851 50.325912,95.178505 
	C62.204117,88.812859 73.978096,82.239075 85.572662,75.372635 
	C87.294609,74.352882 88.811691,71.469017 88.869522,69.404045 
	C89.242233,56.095722 89.354225,42.771893 89.089706,29.462336 
	C89.047516,27.339785 87.176163,24.469732 85.303810,23.297174 
	C74.741409,16.682487 63.911587,10.495543 53.201023,4.115611 
	C52.094574,3.456534 51.173656,2.485995 50.083328,1.329988 
	C64.317024,1.000000 78.634056,1.000000 92.951080,1.000000 
	C92.967384,1.150170 92.997978,1.300340 92.997986,1.450511 
	C93.000069,35.911263 93.000000,70.372009 93.000000,104.916382 
	C62.424171,104.916382 31.848038,104.916382 1.135952,104.916382 
	C1.135952,70.333672 1.135952,35.666924 1.135952,1.000000 
	C14.760367,1.000000 28.411526,1.000000 42.531342,1.000000 
z"/>
<path fill="#7BEAD1" opacity="1.000000" stroke="none" 
	d="
M39.095161,30.452652 
	C40.890419,30.452814 42.220165,30.442741 43.549709,30.454655 
	C59.045475,30.593513 67.427132,42.866158 61.820892,57.385826 
	C59.202629,64.166901 53.748188,67.363983 46.772377,67.848053 
	C41.984535,68.180298 37.155003,67.911736 31.452581,67.911736 
	C31.452581,61.701313 31.452583,55.647015 31.452583,49.592716 
	C31.452583,43.469913 31.452581,37.347111 31.452581,30.452629 
	C34.122997,30.452629 36.376274,30.452629 39.095161,30.452652 
M40.176937,43.700035 
	C40.176937,49.095943 40.176937,54.491852 40.176937,59.938828 
	C45.391644,60.216972 50.253532,61.128689 52.852867,56.238285 
	C55.303833,51.627033 55.376205,46.513340 52.741505,41.945713 
	C50.037167,37.257351 45.251217,37.978806 40.854618,38.272221 
	C40.607601,38.713245 40.333015,38.987724 40.310719,39.281368 
	C40.223038,40.435921 40.214779,41.596500 40.176937,43.700035 
z"/>
<path fill="#0E2135" opacity="1.000000" stroke="none" 
	d="
M40.176987,43.227440 
	C40.214779,41.596500 40.223038,40.435921 40.310719,39.281368 
	C40.333015,38.987724 40.607601,38.713245 40.854618,38.272221 
	C45.251217,37.978806 50.037167,37.257351 52.741505,41.945713 
	C55.376205,46.513340 55.303833,51.627033 52.852867,56.238285 
	C50.253532,61.128689 45.391644,60.216972 40.176937,59.938828 
	C40.176937,54.491852 40.176937,49.095943 40.176987,43.227440 
z"/>
</svg>